<svg width="512" height="350" viewBox="0 0 512 350" fill="none" xmlns="http://www.w3.org/2000/svg">
<g clip-path="url(#clip0)">
<path d="M396 132.5V129.5L394 91.5L405.5 90.5L415 100L418.5 145.5L398.5 145H396V132.5Z" fill="#6C16C7"/>
<path d="M392.706 89.9355C400.722 87.2169 412.853 87.5268 415.348 97.5708C422.463 122.82 421.887 149.407 425.232 175.276C427.205 191.573 428.067 207.98 429.781 224.306C451.103 219.061 467.342 200.09 490.274 200.948C498.618 200.696 505.507 206.937 506.44 215.158C499.497 219.829 491.082 222.383 485.272 228.605C472.37 242.755 452.862 248.725 440.775 263.777C431.241 275.321 418.115 282.8 404.671 288.876C392.359 294.532 394.432 310.978 387.568 320.547C376.091 327.434 363.637 334.801 349.801 334.391C338.251 331.689 328.636 324.231 318.678 318.183C318.631 306.838 324.956 296.744 325.599 285.566C324.945 256.696 312.408 227.533 320.997 198.874C324.903 185.743 342.514 191.463 349.06 181.283C360.063 167.115 379.827 170.361 394.429 162.379C395.221 152.571 392.557 141.837 395.718 132.657L397.315 132.598C398.238 136.581 398.659 140.672 398.576 144.869C405.096 144.93 411.621 145.116 418.164 145.446C418.065 138.267 417.532 131.109 416.411 124.031C408.378 122.037 399.87 121.523 395.563 129.654C394.076 123.808 392.921 116.422 395.781 111.085C398.1 113.216 399.869 115.843 401.089 118.966C405.846 118.707 410.624 118.653 415.421 118.806C415.252 107.948 411.828 88.4169 396.592 92.968C396.075 97.9228 396.018 102.986 394.697 107.837C390.832 102.928 392.957 95.7256 392.706 89.9355Z" stroke="#171717" stroke-width="0.1" stroke-miterlimit="10"/>
<path d="M392.706 89.9355C400.722 87.2169 412.853 87.5268 415.348 97.5708C422.463 122.82 421.887 149.407 425.232 175.276C427.205 191.573 428.067 207.98 429.781 224.306C451.103 219.061 467.342 200.09 490.274 200.948C498.618 200.696 505.507 206.937 506.44 215.158C499.497 219.829 491.082 222.383 485.272 228.605C472.37 242.755 452.862 248.725 440.775 263.777C431.241 275.321 418.115 282.8 404.671 288.876C392.359 294.532 394.432 310.978 387.568 320.547C376.091 327.434 363.637 334.801 349.801 334.391C338.251 331.689 328.636 324.231 318.678 318.183C318.631 306.838 324.956 296.744 325.599 285.566C324.945 256.696 312.408 227.533 320.997 198.874C324.903 185.743 342.514 191.463 349.06 181.283C360.063 167.115 379.827 170.361 394.429 162.379C395.221 152.571 392.557 141.837 395.718 132.657L397.315 132.598C398.238 136.581 398.659 140.672 398.576 144.869C405.096 144.93 411.621 145.116 418.164 145.446C418.065 138.267 417.532 131.109 416.411 124.031C408.378 122.037 399.87 121.523 395.563 129.654C394.076 123.808 392.921 116.422 395.781 111.085C398.1 113.216 399.869 115.843 401.089 118.966C405.846 118.707 410.624 118.653 415.421 118.806C415.252 107.948 411.828 88.4169 396.592 92.968C396.075 97.9228 396.018 102.986 394.697 107.837C390.832 102.928 392.957 95.7256 392.706 89.9355Z" fill="#171717"/>
<path d="M398.179 150.525C404.317 148.425 410.728 149.114 416.934 150.577C418.408 157.612 419.688 164.733 419.772 171.958C407.15 174.096 396.156 163.16 398.179 150.525Z" stroke="white" stroke-width="0.1" stroke-miterlimit="10"/>
<path d="M398.179 150.525C404.317 148.425 410.728 149.114 416.934 150.577C418.408 157.612 419.688 164.733 419.772 171.958C407.15 174.096 396.156 163.16 398.179 150.525Z" fill="#6C16C7"/>
<path d="M379.114 175.626C381.717 167.949 391.244 167.508 397.954 165.955C400.285 170.123 403.379 174.06 404.491 178.82C402.727 190.086 399.36 201.11 398.871 212.59C392.869 212.244 386.9 212.855 381.052 214.038C380.91 201.207 379.717 188.424 379.114 175.626Z" stroke="white" stroke-width="0.1" stroke-miterlimit="10"/>
<path d="M379.114 175.626C381.717 167.949 391.244 167.508 397.954 165.955C400.285 170.123 403.379 174.06 404.491 178.82C402.727 190.086 399.36 201.11 398.871 212.59C392.869 212.244 386.9 212.855 381.052 214.038C380.91 201.207 379.717 188.424 379.114 175.626Z" fill="white"/>
<path d="M354.863 190.769C353.723 179.984 363.753 171.011 374.432 173.492C375.102 186.546 376.03 199.602 375.767 212.693C371.469 214.324 367.108 215.855 363.259 218.387C367.884 218.712 372.533 218.9 377.205 218.952C376.972 220.58 376.506 223.837 376.273 225.466C372.762 227.319 365.272 227.469 368.089 233.285C370.511 233.577 375.356 234.159 377.778 234.45C375.874 241.799 365.389 237.75 364.209 231.913C360.715 218.297 357.232 204.623 354.863 190.769Z" stroke="white" stroke-width="0.1" stroke-miterlimit="10"/>
<path d="M354.863 190.769C353.723 179.984 363.753 171.011 374.432 173.492C375.102 186.546 376.03 199.602 375.767 212.693C371.469 214.324 367.108 215.855 363.259 218.387C367.884 218.712 372.533 218.9 377.205 218.952C376.972 220.58 376.506 223.837 376.273 225.466C372.762 227.319 365.272 227.469 368.089 233.285C370.511 233.577 375.356 234.159 377.778 234.45C375.874 241.799 365.389 237.75 364.209 231.913C360.715 218.297 357.232 204.623 354.863 190.769Z" fill="white"/>
<path d="M410.243 175.784C413.502 176.483 416.774 177.209 420.069 177.944C421.133 191.147 422.587 204.321 423.292 217.561C421.582 217.095 418.162 216.163 416.451 215.697C417.528 218.715 418.609 221.748 419.693 224.796C416.041 223.776 412.447 222.689 408.875 221.551C409.127 223.449 409.631 227.245 409.882 229.143C408.602 228.85 406.042 228.266 404.762 227.974C404.4 219.978 404.662 211.983 404.757 203.999C408.575 201.727 412.402 199.446 416.217 197.136C415.324 193.605 414.559 190.061 413.922 186.503C412.386 187.443 409.315 189.323 407.779 190.263C408.725 185.452 409.569 180.626 410.243 175.784Z" stroke="white" stroke-width="0.1" stroke-miterlimit="10"/>
<path d="M410.243 175.784C413.502 176.483 416.774 177.209 420.069 177.944C421.133 191.147 422.587 204.321 423.292 217.561C421.582 217.095 418.162 216.163 416.451 215.697C417.528 218.715 418.609 221.748 419.693 224.796C416.041 223.776 412.447 222.689 408.875 221.551C409.127 223.449 409.631 227.245 409.882 229.143C408.602 228.85 406.042 228.266 404.762 227.974C404.4 219.978 404.662 211.983 404.757 203.999C408.575 201.727 412.402 199.446 416.217 197.136C415.324 193.605 414.559 190.061 413.922 186.503C412.386 187.443 409.315 189.323 407.779 190.263C408.725 185.452 409.569 180.626 410.243 175.784Z" fill="#6C16C7"/>
<path d="M326.207 196.064C334.395 194.905 341.575 190.507 349.615 188.735C353.558 200.227 355.958 212.146 358.006 224.109C355.257 227.649 352.606 231.261 349.981 234.89C344.301 223.828 342.812 210.579 334.094 201.22C333.135 204.88 332.399 208.606 331.784 212.352C328.744 210.984 325.707 209.621 322.709 208.265C323.813 204.175 324.974 200.107 326.207 196.064Z" stroke="white" stroke-width="0.1" stroke-miterlimit="10"/>
<path d="M326.207 196.064C334.395 194.905 341.575 190.507 349.615 188.735C353.558 200.227 355.958 212.146 358.006 224.109C355.257 227.649 352.606 231.261 349.981 234.89C344.301 223.828 342.812 210.579 334.094 201.22C333.135 204.88 332.399 208.606 331.784 212.352C328.744 210.984 325.707 209.621 322.709 208.265C323.813 204.175 324.974 200.107 326.207 196.064Z" fill="white"/>
<path d="M462.279 212.663C470.82 208.063 480.311 204.603 490.193 205.647C494.014 206.178 500.238 205.636 499.027 211.383C478.765 225.782 460.302 242.33 439.089 255.466C435.976 246.932 433.145 238.232 432.218 229.163C442.826 224.847 454.157 214.716 465.869 221.517C464.644 218.559 463.448 215.608 462.279 212.663Z" stroke="white" stroke-width="0.1" stroke-miterlimit="10"/>
<path d="M462.279 212.663C470.82 208.063 480.311 204.603 490.193 205.647C494.014 206.178 500.238 205.636 499.027 211.383C478.765 225.782 460.302 242.33 439.089 255.466C435.976 246.932 433.145 238.232 432.218 229.163C442.826 224.847 454.157 214.716 465.869 221.517C464.644 218.559 463.448 215.608 462.279 212.663Z" fill="#6C16C7"/>
<path d="M322.162 215.684C327.575 216.202 333.019 216.641 338.468 217.106C342.064 224.644 342.174 235.412 350.265 239.745C357.592 240.584 364.626 242.605 371.005 246.439C369.738 254.619 368.704 262.847 368.792 271.158C370.183 270.469 372.965 269.093 374.357 268.405C374.18 259.68 376.536 251.276 380.364 243.513C386.076 243.386 392.007 244.202 397.587 242.487C401.82 239.996 403.907 235.336 406.582 231.439C412.372 230.864 418.226 230.784 424.007 231.766C424.767 237.107 425.355 242.489 426.368 247.814C429.636 251.845 438.77 253.64 435.546 260.568C427.304 275.255 409.786 280.37 394.681 284.797C384.669 288.499 379.616 276.219 371.549 273.749C370.24 276.17 369.005 278.63 367.843 281.131C358.41 277.848 349.975 285.766 340.553 285.085C336.206 284.81 329.826 283.947 329.721 278.362C325.708 257.689 323.544 236.68 322.162 215.684Z" stroke="white" stroke-width="0.1" stroke-miterlimit="10"/>
<path d="M322.162 215.684C327.575 216.202 333.019 216.641 338.468 217.106C342.064 224.644 342.174 235.412 350.265 239.745C357.592 240.584 364.626 242.605 371.005 246.439C369.738 254.619 368.704 262.847 368.792 271.158C370.183 270.469 372.965 269.093 374.357 268.405C374.18 259.68 376.536 251.276 380.364 243.513C386.076 243.386 392.007 244.202 397.587 242.487C401.82 239.996 403.907 235.336 406.582 231.439C412.372 230.864 418.226 230.784 424.007 231.766C424.767 237.107 425.355 242.489 426.368 247.814C429.636 251.845 438.77 253.64 435.546 260.568C427.304 275.255 409.786 280.37 394.681 284.797C384.669 288.499 379.616 276.219 371.549 273.749C370.24 276.17 369.005 278.63 367.843 281.131C358.41 277.848 349.975 285.766 340.553 285.085C336.206 284.81 329.826 283.947 329.721 278.362C325.708 257.689 323.544 236.68 322.162 215.684Z" fill="white"/>
<path d="M380.604 216.582C387.098 216.481 393.555 215.636 399.881 214.052C400.098 219.061 400.313 224.082 400.524 229.114C394.997 224.225 388.395 222.38 381.17 223.863C381.029 222.042 380.746 218.402 380.604 216.582Z" stroke="white" stroke-width="0.1" stroke-miterlimit="10"/>
<path d="M380.604 216.582C387.098 216.481 393.555 215.636 399.881 214.052C400.098 219.061 400.313 224.082 400.524 229.114C394.997 224.225 388.395 222.38 381.17 223.863C381.029 222.042 380.746 218.402 380.604 216.582Z" fill="white"/>
<path d="M384.681 231.416C387.592 227.533 396.364 231.638 392.645 236.25C389.513 239.904 381.18 236.154 384.681 231.416Z" stroke="white" stroke-width="0.1" stroke-miterlimit="10"/>
<path d="M384.681 231.416C387.592 227.533 396.364 231.638 392.645 236.25C389.513 239.904 381.18 236.154 384.681 231.416Z" fill="white"/>
<path d="M361.547 326.804C362.307 313.41 366.644 300.496 373.047 288.785C375.82 290.73 378.614 292.68 381.429 294.637C379.204 303.222 377.428 311.931 374.969 320.461C372.052 324.855 366.544 326.504 361.547 326.804Z" stroke="white" stroke-width="0.1" stroke-miterlimit="10"/>
<path d="M361.547 326.804C362.307 313.41 366.644 300.496 373.047 288.785C375.82 290.73 378.614 292.68 381.429 294.637C379.204 303.222 377.428 311.931 374.969 320.461C372.052 324.855 366.544 326.504 361.547 326.804Z" fill="white"/>
<path d="M329.503 295.594C338.582 295.159 347.616 294.091 356.549 292.319C352.681 303.625 348.722 314.918 345.999 326.576C338.094 324.262 331.087 319.906 324.186 315.579C325.809 308.873 327.68 302.238 329.503 295.594Z" stroke="white" stroke-width="0.1" stroke-miterlimit="10"/>
<path d="M329.503 295.594C338.582 295.159 347.616 294.091 356.549 292.319C352.681 303.625 348.722 314.918 345.999 326.576C338.094 324.262 331.087 319.906 324.186 315.579C325.809 308.873 327.68 302.238 329.503 295.594Z" fill="white"/>
<path d="M355.755 306.205C357.987 299.832 358.859 291.785 366.412 289.496C364.818 296.561 362.72 303.504 360.754 310.48C359.504 309.411 357.005 307.274 355.755 306.205Z" stroke="white" stroke-width="0.1" stroke-miterlimit="10"/>
<path d="M355.755 306.205C357.987 299.832 358.859 291.785 366.412 289.496C364.818 296.561 362.72 303.504 360.754 310.48C359.504 309.411 357.005 307.274 355.755 306.205Z" fill="white"/>
<path d="M356.891 314.289C360.875 316.265 360.216 330.274 353.592 328.105C350.749 323.739 354.472 318.03 356.891 314.289Z" stroke="#C7C7C7" stroke-width="0.1" stroke-miterlimit="10"/>
<path d="M356.891 314.289C360.875 316.265 360.216 330.274 353.592 328.105C350.749 323.739 354.472 318.03 356.891 314.289Z" fill="#C7C7C7"/>
<g filter="url(#filter0_d)">
<path d="M4.56445 258V238.518L16.1426 236.848L67.6875 95.9062H100.975L152.186 236.848L163.764 238.518V258H108.545V238.518L119.789 236.514L112.664 214.248H55.6641L48.5391 236.514L59.7832 238.518V258H4.56445ZM63.3457 190.312H104.982L86.0566 134.76L84.498 129.861H83.8301L82.1602 135.094L63.3457 190.312ZM245.251 260.338C233.302 260.338 222.429 259.002 212.632 256.33C202.835 253.658 193.187 249.02 183.687 242.414V203.227H208.847L212.298 226.271C215.564 229.092 220.128 231.393 225.992 233.174C231.929 234.881 238.349 235.734 245.251 235.734C254.083 235.734 260.837 233.953 265.513 230.391C270.189 226.754 272.527 221.855 272.527 215.695C272.527 209.906 270.3 205.045 265.847 201.111C261.468 197.104 253.749 193.393 242.691 189.979C223.468 184.412 209.144 177.807 199.718 170.162C190.292 162.518 185.58 152.053 185.58 138.768C185.58 130.01 187.992 122.291 192.816 115.611C197.714 108.857 204.468 103.551 213.078 99.6914C221.687 95.832 231.632 93.8281 242.914 93.6797C255.382 93.5312 266.404 95.0156 275.978 98.1328C285.626 101.25 293.939 105.592 300.915 111.158V147.674H276.535L272.304 125.408C269.484 123.627 265.662 122.068 260.837 120.732C256.087 119.396 250.669 118.729 244.583 118.729C236.79 118.729 230.408 120.473 225.435 123.961C220.462 127.449 217.976 132.348 217.976 138.656C217.976 144.074 220.277 148.602 224.878 152.238C229.554 155.801 238.126 159.586 250.595 163.594C268.482 168.566 282.027 175.135 291.23 183.299C300.507 191.463 305.146 202.188 305.146 215.473C305.146 224.75 302.66 232.729 297.687 239.408C292.714 246.088 285.701 251.246 276.646 254.883C267.665 258.52 257.201 260.338 245.251 260.338Z" fill="url(#paint0_linear)"/>
</g>
</g>
<defs>
<filter id="filter0_d" x="-20.4355" y="73.6696" width="350.581" height="216.668" filterUnits="userSpaceOnUse" color-interpolation-filters="sRGB">
<feFlood flood-opacity="0" result="BackgroundImageFix"/>
<feColorMatrix in="SourceAlpha" type="matrix" values="0 0 0 0 0 0 0 0 0 0 0 0 0 0 0 0 0 0 127 0"/>
<feOffset dy="5"/>
<feGaussianBlur stdDeviation="12.5"/>
<feColorMatrix type="matrix" values="0 0 0 0 0.329412 0 0 0 0 0.192157 0 0 0 0 0.588235 0 0 0 0.46 0"/>
<feBlend mode="normal" in2="BackgroundImageFix" result="effect1_dropShadow"/>
<feBlend mode="normal" in="SourceGraphic" in2="effect1_dropShadow" result="shape"/>
</filter>
<linearGradient id="paint0_linear" x1="256" y1="27" x2="256" y2="258" gradientUnits="userSpaceOnUse">
<stop stop-color="#9243E5"/>
<stop offset="1" stop-color="#442C82"/>
</linearGradient>
<clipPath id="clip0">
<rect width="512" height="350" fill="white"/>
</clipPath>
</defs>
</svg>
